<?xml version="1.0" encoding="UTF-8"?>
<svg width="200" height="200" viewBox="0 0 200 200" fill="none" xmlns="http://www.w3.org/2000/svg">
  <!-- Círculo decorativo externo -->
  <circle cx="100" cy="100" r="95" stroke="#FFC0CB" stroke-width="2" stroke-dasharray="4 4"/>
  
  <!-- Círculo principal -->
  <circle cx="100" cy="100" r="85" fill="#FFC0CB" fill-opacity="0.1"/>
  
  <!-- Flor estilizada -->
  <g transform="translate(100 100)">
    <!-- Pétalas -->
    <path d="
      M 0,-60 
      C 20,-60 40,-40 40,-20 
      C 40,0 20,20 0,20 
      C -20,20 -40,0 -40,-20 
      C -40,-40 -20,-60 0,-60
      Z" 
      fill="#FFC0CB" 
      fill-opacity="0.6"
      transform="rotate(0)"/>
    <path d="
      M 0,-60 
      C 20,-60 40,-40 40,-20 
      C 40,0 20,20 0,20 
      C -20,20 -40,0 -40,-20 
      C -40,-40 -20,-60 0,-60
      Z" 
      fill="#FFC0CB" 
      fill-opacity="0.6"
      transform="rotate(72)"/>
    <path d="
      M 0,-60 
      C 20,-60 40,-40 40,-20 
      C 40,0 20,20 0,20 
      C -20,20 -40,0 -40,-20 
      C -40,-40 -20,-60 0,-60
      Z" 
      fill="#FFC0CB" 
      fill-opacity="0.6"
      transform="rotate(144)"/>
    <path d="
      M 0,-60 
      C 20,-60 40,-40 40,-20 
      C 40,0 20,20 0,20 
      C -20,20 -40,0 -40,-20 
      C -40,-40 -20,-60 0,-60
      Z" 
      fill="#FFC0CB" 
      fill-opacity="0.6"
      transform="rotate(216)"/>
    <path d="
      M 0,-60 
      C 20,-60 40,-40 40,-20 
      C 40,0 20,20 0,20 
      C -20,20 -40,0 -40,-20 
      C -40,-40 -20,-60 0,-60
      Z" 
      fill="#FFC0CB" 
      fill-opacity="0.6"
      transform="rotate(288)"/>
  </g>
  
  <!-- Centro da flor -->
  <circle cx="100" cy="100" r="20" fill="#FFC0CB"/>
  
  <!-- Texto estilizado BS -->
  <text x="100" y="108" 
    font-family="Arial, sans-serif" 
    font-size="24" 
    font-weight="bold" 
    fill="#FFFFFF" 
    text-anchor="middle"
    dominant-baseline="middle">BS</text>
    
  <!-- Elementos decorativos -->
  <g transform="translate(100 100)">
    <circle cx="0" cy="-65" r="3" fill="#FFC0CB"/>
    <circle cx="62" cy="-20" r="3" fill="#FFC0CB"/>
    <circle cx="38" cy="52" r="3" fill="#FFC0CB"/>
    <circle cx="-38" cy="52" r="3" fill="#FFC0CB"/>
    <circle cx="-62" cy="-20" r="3" fill="#FFC0CB"/>
  </g>
</svg> 