<?xml version="1.0" encoding="UTF-8"?>
<svg width="200" height="200" viewBox="0 0 200 200" fill="none" xmlns="http://www.w3.org/2000/svg">
  <!-- Círculo principal com gradiente -->
  <circle cx="100" cy="100" r="90" fill="url(#gradient)"/>
  
  <!-- Elementos decorativos -->
  <path 
    d="M100 30
       A70 70 0 0 1 170 100
       A70 70 0 0 1 100 170
       A70 70 0 0 1 30 100
       A70 70 0 0 1 100 30Z
       M100 45
       A55 55 0 0 0 45 100
       A55 55 0 0 0 100 155
       A55 55 0 0 0 155 100
       A55 55 0 0 0 100 45Z"
    fill="#FFC0CB"
    fill-opacity="0.2"
  />
  
  <!-- Linha decorativa circular -->
  <circle 
    cx="100" 
    cy="100" 
    r="75" 
    stroke="#FFC0CB" 
    stroke-width="2"
    stroke-dasharray="1 3"
  />
  
  <!-- Texto BS estilizado -->
  <g transform="translate(100 100)">
    <path
      d="M-20,-15 
         C-20,-25 -10,-30 0,-30
         C15,-30 25,-20 25,-5
         C25,5 15,10 0,10
         C20,10 30,20 30,35
         C30,50 15,60 0,60
         C-15,60 -25,50 -25,40"
      stroke="#FFFFFF"
      stroke-width="8"
      stroke-linecap="round"
      fill="none"
    />
    <path
      d="M5,-15
         C25,-15 40,0 40,20
         L40,25
         C40,40 30,50 15,50
         L0,50
         L0,60
         L40,60"
      stroke="#FFFFFF"
      stroke-width="8"
      stroke-linecap="round"
      fill="none"
    />
  </g>
  
  <!-- Gradiente -->
  <defs>
    <linearGradient id="gradient" x1="0" y1="0" x2="200" y2="200">
      <stop offset="0%" stop-color="#FFD1D9"/>
      <stop offset="100%" stop-color="#FFC0CB"/>
    </linearGradient>
  </defs>
</svg> 