<?xml version="1.0" encoding="UTF-8"?>
<svg width="500" height="500" viewBox="0 0 500 500" fill="none" xmlns="http://www.w3.org/2000/svg">
  <rect width="500" height="500" fill="#D4B3B3"/>
  <g>
    <!-- Monograma "B" -->
    <path d="M200 150 L300 150 Q350 150 350 200 L350 250 Q350 300 300 300 L200 300 Z" fill="white"/>
    <path d="M200 250 L300 250 Q350 250 350 300 L350 350 Q350 400 300 400 L200 400 Z" fill="white"/>
    <!-- Estrelas -->
    <circle cx="370" cy="130" r="5" fill="white"/>
    <circle cx="390" cy="150" r="3" fill="white"/>
    <!-- Borboleta estilizada -->
    <path d="M150 200 Q120 180 100 200 Q120 220 150 200 Z" fill="white"/>
    <path d="M150 200 Q180 180 200 200 Q180 220 150 200 Z" fill="white"/>
    <!-- Texto "Bruna Silva" -->
    <text x="250" y="450" text-anchor="middle" font-family="cursive" font-size="40" fill="white">Bruna Silva</text>
    <!-- Texto "AESTHETIC & NAILS" -->
    <text x="250" y="480" text-anchor="middle" font-family="sans-serif" font-size="20" fill="white">AESTHETIC &amp; NAILS</text>
  </g>
</svg> 